<svg version="1.1" preserveAspectRatio="none" xmlns="http://www.w3.org/2000/svg" width="500" height="500" viewBox="0 0 500 500"><rect width="100%" height="100%" fill="#EDECEB" fill-opacity="1"/><svg viewBox="461.1113 611.9247 337.0364 582.3874" width="192.71213834639968" height="333" x="153.6439px" y="83.5px" xmlns="http://www.w3.org/2000/svg" xmlns:xlink="http://www.w3.org/1999/xlink" preserveAspectRatio="none"><defs></defs><style>.companyName {fill:#5B4B42;fill-opacity:1;}.icon1 {fill:#B3D0D9;fill-opacity:1;}.icon2 {fill:#99A08E;fill-opacity:1;}.icon3 {fill:#DFC4B5;fill-opacity:1;}.icon3-str {stroke:#DFC4B5;stroke-opacity:1;}.text {fill:#5D4B40;fill-opacity:1;}</style><g opacity="1" transform="rotate(0 461.1113 611.9247)">
<svg width="337.0364" height="392.3874" x="461.1113" y="611.9247" version="1.1" preserveAspectRatio="none" viewBox="76.5539779663086 23.43512725830078 646.8909912109375 753.1289672851562">
  <g transform="matrix(1 0 0 1 0 0)" class="icon1"><g><path d="M211.233,250.719h-8.581c-11.046,0-20,8.954-20,20s8.954,20,20,20h8.581c11.046,0,20-8.954,20-20   S222.279,250.719,211.233,250.719z"></path><path d="M510.248,437.925c-14.946,41.746-46.968,75.623-87.854,92.945c-10.17,4.309-14.922,16.047-10.613,26.217   c3.23,7.625,10.635,12.203,18.425,12.203c2.603,0,5.247-0.511,7.794-1.59c51.145-21.669,91.205-64.056,109.908-116.291   c3.723-10.399-1.689-21.849-12.088-25.572C525.424,422.117,513.973,427.525,510.248,437.925z"></path><path d="M539.289,413.114c10.608,0,19.453-8.342,19.961-19.052c0.149-3.147,0.225-6.348,0.225-9.516c0-11.046-8.953-20-20-20   c-11.045,0-20,8.954-20,20c0,2.538-0.061,5.101-0.18,7.619c-0.523,11.033,7.996,20.401,19.029,20.926   C538.647,413.106,538.969,413.114,539.289,413.114z"></path><path d="M223.353,719.356c-5.304-1.463-10.548-3.033-15.589-4.667c-10.508-3.406-21.787,2.351-25.193,12.858   c-3.406,10.507,2.351,21.786,12.857,25.192c5.602,1.815,11.419,3.558,17.29,5.177c1.779,0.49,3.568,0.725,5.329,0.725   c8.773,0,16.822-5.818,19.269-14.688C240.252,733.306,234.001,722.294,223.353,719.356z"></path><path d="M618.522,523.904c57.854,0,104.923-47.067,104.923-104.92c0-53.78-40.676-98.231-92.877-104.226   c-4.682-18.121-11.214-35.774-19.598-52.853c-3.361-6.848-10.325-11.187-17.953-11.187H263.658c-11.045,0-20,8.954-20,20   s8.955,20,20,20h316.549c12.715,29.631,19.152,61.137,19.152,93.828c0,131.618-107.079,238.697-238.697,238.697   c-131.619,0-238.699-107.079-238.699-238.697c0-36.836,8.174-72.169,24.295-105.017c4.867-9.916,0.773-21.899-9.143-26.766   c-9.915-4.867-21.898-0.773-26.766,9.143c-18.836,38.379-28.386,79.641-28.386,122.64c0,63.254,20.941,123.284,59.525,172.194   c-42.096,23.499-64.934,53.64-64.934,86.503c0,23.366,11.639,57.548,67.089,87.704c3.036,1.65,6.31,2.434,9.538,2.434   c7.091,0,13.961-3.781,17.587-10.449c5.277-9.703,1.688-21.848-8.015-27.125c-29.793-16.201-46.199-34.869-46.199-52.563   c0-18.899,19.51-39.353,52.841-56.003c14.626,13.822,30.495,25.887,47.353,36.088c-10.261,0.853-18.326,9.435-18.326,19.915   c0,11.046,8.955,20,20,20H502.9c11.047,0,20-8.954,20-20c0-10.48-8.064-19.063-18.324-19.915   c16.856-10.201,32.725-22.266,47.352-36.088c33.326,16.648,52.84,37.109,52.84,56.003c0,21.138-24.389,44.222-65.24,61.75   c-47.447,20.358-110.97,31.57-178.865,31.57c-30.359,0-60.033-2.259-88.199-6.712c-10.91-1.729-21.152,5.721-22.877,16.631   c-1.726,10.91,5.721,21.153,16.631,22.879c30.224,4.779,62,7.202,94.445,7.202c73.195,0,142.319-12.362,194.638-34.812   c57.694-24.755,89.468-59.739,89.468-98.509c0-32.857-22.842-63.002-64.934-86.501c8.539-10.824,16.213-22.191,22.987-34.02   C607.998,523.501,613.241,523.904,618.522,523.904z M683.445,418.984c0,34.892-27.674,63.431-62.225,64.852   c11.908-31.288,18.139-64.809,18.139-99.289c0-9.25-0.469-18.414-1.35-27.491C664.315,365.351,683.445,389.974,683.445,418.984z"></path><path d="M501.725,231.865c5.119,0,10.237-1.953,14.143-5.858c7.811-7.811,7.811-20.474,0-28.284   c-8.336-8.336-7.764-13.01,4.377-35.722c6.117-11.445,13.051-24.417,14.832-39.093c2.254-18.579-4.209-35.604-19.209-50.604   c-7.811-7.811-20.474-7.811-28.284,0s-7.811,20.474,0,28.284c11.83,11.83,9.935,19.077-2.616,42.557   c-6.004,11.233-12.212,22.848-14.113,36.169c-2.482,17.4,3.146,33.109,16.729,46.693   C491.488,229.913,496.606,231.865,501.725,231.865z"></path><path d="M197.92,162.001c12.141,22.712,12.713,27.386,4.377,35.722c-7.811,7.811-7.811,20.474,0,28.284   c3.905,3.905,9.023,5.858,14.143,5.858c5.118,0,10.236-1.953,14.142-5.858c13.583-13.583,19.212-29.293,16.729-46.693   c-1.901-13.322-8.109-24.937-14.113-36.169c-12.551-23.479-14.446-30.727-2.616-42.557c7.811-7.811,7.811-20.474,0-28.284   s-20.474-7.811-28.284,0c-15,15-21.463,32.025-19.209,50.604C184.869,137.584,191.803,150.556,197.92,162.001z"></path><path d="M359.082,231.865c5.118,0,10.236-1.953,14.142-5.858c7.811-7.811,7.811-20.474,0-28.284   c-15.126-15.126-10.992-26.735,4.679-56.055c7.932-14.838,16.922-31.657,19.158-50.092c2.76-22.75-5.26-43.705-23.837-62.283   c-7.811-7.81-20.474-7.811-28.284,0c-7.811,7.81-7.811,20.474,0,28.284c20.313,20.314,13.576,35.506-2.313,65.235   c-7.782,14.56-15.83,29.616-18.212,46.309c-3.013,21.114,3.893,40.253,20.525,56.886   C348.845,229.913,353.963,231.865,359.082,231.865z"></path></g></g>
</svg>
</g><g opacity="1" transform="rotate(0 581.5938 1166.3121)">
<svg width="96.0714" height="28" x="581.5938" y="1166.3121" version="1.1" preserveAspectRatio="none" viewBox="3.04 -29.46 124.6 36.32">
  <g transform="matrix(1 0 0 1 0 0)" class="text"><path id="id-6izo4zJp6" d="M5.34 0L3.04 0L3.04-29.46L6.62-29.46L6.62-17.34Q7.88-18.80 9.51-19.69Q11.14-20.58 13.24-20.58L13.24-20.58Q15-20.58 16.42-19.92Q17.84-19.26 18.84-17.95Q19.84-16.64 20.38-14.71Q20.92-12.78 20.92-10.26L20.92-10.26Q20.92-8.02 20.32-6.09Q19.72-4.16 18.59-2.75Q17.46-1.34 15.83-0.53Q14.20 0.28 12.16 0.28L12.16 0.28Q10.20 0.28 8.83-0.48Q7.46-1.24 6.44-2.60L6.44-2.60L6.26-0.76Q6.10 0 5.34 0L5.34 0ZM12.08-17.74L12.08-17.74Q10.34-17.74 9.03-16.94Q7.72-16.14 6.62-14.68L6.62-14.68L6.62-4.88Q7.58-3.56 8.75-3.02Q9.92-2.48 11.36-2.48L11.36-2.48Q14.20-2.48 15.72-4.50Q17.24-6.52 17.24-10.26L17.24-10.26Q17.24-12.24 16.89-13.66Q16.54-15.08 15.88-15.99Q15.22-16.90 14.26-17.32Q13.30-17.74 12.08-17.74Z M41.76-12.96L41.76 0L40.18 0Q39.66 0 39.34-0.16Q39.02-0.32 38.92-0.84L38.92-0.84L38.52-2.72Q37.72-2 36.96-1.43Q36.20-0.86 35.36-0.47Q34.52-0.08 33.57 0.12Q32.62 0.32 31.46 0.32L31.46 0.32Q30.28 0.32 29.25-0.01Q28.22-0.34 27.46-1Q26.70-1.66 26.25-2.67Q25.80-3.68 25.80-5.06L25.80-5.06Q25.80-6.26 26.46-7.37Q27.12-8.48 28.59-9.34Q30.06-10.20 32.44-10.75Q34.82-11.30 38.26-11.38L38.26-11.38L38.26-12.96Q38.26-15.32 37.25-16.53Q36.24-17.74 34.26-17.74L34.26-17.74Q32.96-17.74 32.07-17.41Q31.18-17.08 30.53-16.67Q29.88-16.26 29.41-15.93Q28.94-15.60 28.48-15.60L28.48-15.60Q28.12-15.60 27.85-15.79Q27.58-15.98 27.42-16.26L27.42-16.26L26.78-17.40Q28.46-19.02 30.40-19.82Q32.34-20.62 34.70-20.62L34.70-20.62Q36.40-20.62 37.72-20.06Q39.04-19.50 39.94-18.50Q40.84-17.50 41.30-16.08Q41.76-14.66 41.76-12.96L41.76-12.96ZM32.52-2.18L32.52-2.18Q33.46-2.18 34.24-2.37Q35.02-2.56 35.71-2.91Q36.40-3.26 37.03-3.76Q37.66-4.26 38.26-4.90L38.26-4.90L38.26-9.12Q35.80-9.04 34.08-8.73Q32.36-8.42 31.28-7.92Q30.20-7.42 29.71-6.74Q29.22-6.06 29.22-5.22L29.22-5.22Q29.22-4.42 29.48-3.84Q29.74-3.26 30.18-2.89Q30.62-2.52 31.22-2.35Q31.82-2.18 32.52-2.18Z M48.88-29.46L52.46-29.46L52.46-12.12L53.38-12.12Q53.78-12.12 54.04-12.23Q54.30-12.34 54.62-12.68L54.62-12.68L61.02-19.54Q61.32-19.86 61.62-20.06Q61.92-20.26 62.42-20.26L62.42-20.26L65.66-20.26L58.20-12.32Q57.92-11.98 57.65-11.72Q57.38-11.46 57.04-11.26L57.04-11.26Q57.40-11.02 57.69-10.71Q57.98-10.40 58.24-10L58.24-10L66.16 0L62.96 0Q62.52 0 62.21-0.17Q61.90-0.34 61.62-0.70L61.62-0.70L54.96-9Q54.66-9.42 54.36-9.55Q54.06-9.68 53.46-9.68L53.46-9.68L52.46-9.68L52.46 0L48.88 0L48.88-29.46Z M78.14-20.58L78.14-20.58Q79.96-20.58 81.50-19.97Q83.04-19.36 84.16-18.21Q85.28-17.06 85.91-15.37Q86.54-13.68 86.54-11.52L86.54-11.52Q86.54-10.68 86.36-10.40Q86.18-10.12 85.68-10.12L85.68-10.12L72.20-10.12Q72.24-8.20 72.72-6.78Q73.20-5.36 74.04-4.41Q74.88-3.46 76.04-2.99Q77.20-2.52 78.64-2.52L78.64-2.52Q79.98-2.52 80.95-2.83Q81.92-3.14 82.62-3.50Q83.32-3.86 83.79-4.17Q84.26-4.48 84.60-4.48L84.60-4.48Q85.04-4.48 85.28-4.14L85.28-4.14L86.28-2.84Q85.62-2.04 84.70-1.45Q83.78-0.86 82.73-0.48Q81.68-0.10 80.56 0.09Q79.44 0.28 78.34 0.28L78.34 0.28Q76.24 0.28 74.47-0.43Q72.70-1.14 71.41-2.51Q70.12-3.88 69.40-5.90Q68.68-7.92 68.68-10.54L68.68-10.54Q68.68-12.66 69.33-14.50Q69.98-16.34 71.20-17.69Q72.42-19.04 74.18-19.81Q75.94-20.58 78.14-20.58ZM78.22-17.96L78.22-17.96Q75.64-17.96 74.16-16.47Q72.68-14.98 72.32-12.34L72.32-12.34L83.34-12.34Q83.34-13.58 83-14.61Q82.66-15.64 82-16.39Q81.34-17.14 80.39-17.55Q79.44-17.96 78.22-17.96Z M96.24 0L92.68 0L92.68-20.26L94.72-20.26Q95.30-20.26 95.52-20.04Q95.74-19.82 95.82-19.28L95.82-19.28L96.06-16.12Q97.10-18.24 98.63-19.43Q100.16-20.62 102.22-20.62L102.22-20.62Q103.06-20.62 103.74-20.43Q104.42-20.24 105.00-19.90L105.00-19.90L104.54-17.24Q104.40-16.74 103.92-16.74L103.92-16.74Q103.64-16.74 103.06-16.93Q102.48-17.12 101.44-17.12L101.44-17.12Q99.58-17.12 98.33-16.04Q97.08-14.96 96.24-12.90L96.24-12.90L96.24 0Z M127.64-20.26L116.34 5.98Q116.16 6.38 115.89 6.62Q115.62 6.86 115.06 6.86L115.06 6.86L112.42 6.86L116.12-1.18L107.76-20.26L110.84-20.26Q111.30-20.26 111.56-20.03Q111.82-19.80 111.94-19.52L111.94-19.52L117.36-6.76Q117.54-6.32 117.67-5.88Q117.80-5.44 117.90-4.98L117.90-4.98Q118.04-5.44 118.18-5.88Q118.32-6.32 118.50-6.78L118.50-6.78L123.76-19.52Q123.88-19.84 124.17-20.05Q124.46-20.26 124.80-20.26L124.80-20.26L127.64-20.26Z"/></g>
</svg>
</g><g opacity="1" transform="rotate(0 461.1113 1044.3121)">
<svg width="337.0364" height="100" x="461.1113" y="1044.3121" version="1.1" preserveAspectRatio="none" viewBox="1.2 -26.6 91 27">
  <g transform="matrix(1 0 0 1 0 0)" class="companyName"><path id="id-D6z1nYkh3" d="M9.84 0L1.20 0L1.20-0.64L3.72-1.96L14-26.60L16.20-26.60L26.36-2.08L29.04-0.64L29.04 0L18.48 0L18.48-0.64L22-2.04L19.04-9.24L9.40-9.24L6.48-2L9.84-0.64L9.84 0ZM14.24-21.08L10.32-11.44L18.16-11.44L14.24-21.08Z M38.12 0.40L38.12 0.40Q34.96 0.40 33-1.20Q31.04-2.80 31.04-5.44L31.04-5.44Q31.04-7.08 32.26-8.70Q33.48-10.32 36.12-11.84L36.12-11.84Q34.88-13.08 34.22-13.96Q33.56-14.84 33.32-15.60Q33.08-16.36 33.08-17.32L33.08-17.32Q33.08-18.64 33.94-19.88Q34.80-21.12 36.32-21.94Q37.84-22.76 39.84-22.76L39.84-22.76Q42.76-22.76 44.38-21.52Q46-20.28 46-18.32L46-18.32Q46-16.80 44.54-15.58Q43.08-14.36 40.24-12.92L40.24-12.92Q40.56-12.64 40.86-12.34Q41.16-12.04 41.52-11.72L41.52-11.72L47.16-6.40Q48.12-7.80 48.98-9.62Q49.84-11.44 50.60-13.64L50.60-13.64L47.04-14.96L47.04-15.52L55.72-15.52L55.72-14.96L52.60-13.72Q51.52-11.32 50.40-9.24Q49.28-7.16 48.12-5.48L48.12-5.48L52.04-1.76L55-0.52L55 0.08L48.60 0.08L45.72-2.68Q44.16-1.20 42.30-0.40Q40.44 0.40 38.12 0.40ZM36.68-18.20L36.68-18.20Q36.68-17.08 37.32-16.10Q37.96-15.12 39.36-13.76L39.36-13.76Q40.88-14.84 41.70-15.88Q42.52-16.92 42.52-18.28L42.52-18.28Q42.52-19.60 41.72-20.42Q40.92-21.24 39.60-21.24L39.60-21.24Q38.32-21.24 37.50-20.42Q36.68-19.60 36.68-18.20ZM34.72-6.36L34.72-6.36Q34.72-4.20 36.16-3Q37.60-1.80 39.68-1.80L39.68-1.80Q42.44-1.80 44.72-3.64L44.72-3.64L39.28-8.80Q38.60-9.44 38.04-9.98Q37.48-10.52 36.96-11L36.96-11Q35.48-9.88 35.10-8.86Q34.72-7.84 34.72-6.36Z M67 0L57.96 0L57.96-0.64L61.16-2.24L62-24.16L58.56-25.76L58.56-26.40L66.52-26.40L75.48-5.72L84.40-26.40L92.04-26.40L92.04-25.76L88.64-24.28L89.32-2.24L92.20-0.64L92.20 0L82.32 0L82.32-0.64L85.32-2.20L84.92-21.76L75.48 0.20L73.56 0.20L64.20-21.52L63.68-2.20L67-0.64L67 0Z"/></g>
</svg>
</g></svg></svg>